<?xml version="1.0" encoding="iso-8859-1"?>
<!-- Uploaded to: SVG Repo, www.svgrepo.com, Generator: SVG Repo Mixer Tools -->
<svg height="200" width="200" version="1.1" id="Layer_1" xmlns="http://www.w3.org/2000/svg" xmlns:xlink="http://www.w3.org/1999/xlink" 
	 viewBox="0 0 496.002 496.002" xml:space="preserve">
<g transform="translate(0 -1020.36)" shape-rendering="auto" image-rendering="auto" color-rendering="auto" color-interpolation="sRGB">
	<path style="fill:#484666;" d="M108.037,1020.375c-37.456,0-68.036,30.491-68.036,67.869c0.026,17.072,6.909,39.211,17.126,56.189
		c13.631,22.65,39.875,48.584,62.942,69.525c23.067,20.939,43.003,36.605,43.003,36.605c2.913,2.303,7.025,2.303,9.938,0
		c0,0,21.892-17.41,46.035-39.479c14.015,22.018,38.906,46.727,61.098,66.869c23.069,20.941,42.878,36.605,42.878,36.605
		c2.907,2.285,7,2.285,9.907,0c0,0,19.019-14.986,41.222-34.949c22.203-19.963,47.579-44.674,61.067-66.119
		c11.376-18.09,20.761-41.389,20.783-61.248c0-37.377-30.58-67.9-68.036-67.9c-19.792,0-36.211,11.402-47.816,22.082
		c-7.521,6.922-9.131,9.9-12.188,13.93c-3.058-4.031-4.636-7.008-12.157-13.93c-5.639-5.189-12.466-10.479-20.22-14.615
		c0.152-1.232,0.375-2.014,0.375-3.561c0-37.378-30.592-68.795-68.036-67.87c-16.124,0.432-36.341,10.86-47.847,22.085
		c-6.766,6.6-8.955,9.76-12.032,13.805c-3.068-4.037-4.672-6.917-12.157-13.805c-11.605-10.679-28.057-22.082-47.847-22.082
		L108.037,1020.375z"/>
	<path style="fill:#FF819A;" d="M108.037,1036.43c13.342,0,26.861,8.529,36.972,17.834c10.111,9.304,16.283,18.646,16.283,18.646
		c2.452,3.684,7.426,4.682,11.111,2.232c0.885-0.59,1.645-1.348,2.233-2.232c0,0,6.203-9.343,16.314-18.646
		c10.111-9.304,23.629-17.834,36.972-17.834c27.804,0,49.566,21.915,51.098,49.223c-3.567-0.768-7.235-1.313-11.063-1.313
		c-37.456,0-68.036,30.523-68.036,67.9c0.021,13.32,4.363,29.652,11.095,44.287c-21.511,19.748-39.274,34.127-43.097,37.168
		c-3.862-3.07-17.158-13.445-37.097-31.545c-22.615-20.529-48.369-46.629-60.005-65.963c-8.52-14.158-14.857-35.65-14.876-47.943
		c0-28.701,23.288-51.816,52.098-51.816L108.037,1036.43z"/>
	<path style="fill:#E4635D;" d="M267.956,1100.395c13.344,0,26.861,8.529,36.972,17.834c10.11,9.305,16.439,18.553,16.439,18.553
		c3.183,4.641,10.036,4.641,13.22,0c0,0,6.297-9.248,16.407-18.553c10.111-9.305,23.627-17.834,36.972-17.834
		c28.815,0,51.973,23.146,51.973,51.846c-0.016,14.381-8.279,36.795-18.314,52.752c-11.532,18.336-36.327,43.111-58.098,62.686
		c-19.09,17.164-31.741,26.951-35.565,29.984c-3.863-3.07-17.124-13.414-37.065-31.514c-22.617-20.529-48.367-46.66-60.004-65.996
		c-8.604-15.039-13.979-27.592-14.908-47.904c0-3.588,0.375-7.084,1.063-10.463c3.446-16.887,15.083-30.748,30.627-37.291
		c3.112-1.313,6.391-2.34,9.782-3.029c3.39-0.688,6.9-1.057,10.501-1.057L267.956,1100.395z"/>
	<g>
		<path style="fill:#484666;" d="M165.438,1236.279c-3.5,0.395-6.329,3.031-6.969,6.492c0,0-2.089,9.941-3.898,22.43
			c-1.808,12.49-3.471,27.209-2.008,38.721c1.661,13.061,7.634,24.254,12.875,34.588c5.242,10.332,9.71,19.771,10.395,28.92
			c0.915,12.227-3.12,33.395-7.678,50.76c-4.558,17.365-9.45,31.281-9.45,31.281c-1.622,4.107,0.396,8.752,4.507,10.373
			s8.758-0.396,10.379-4.504c0.088-0.223,0.165-0.449,0.233-0.678c0,0,5.072-14.316,9.804-32.344
			c4.732-18.027,9.392-39.471,8.15-56.072c-0.992-13.25-6.751-24.5-12.048-34.941c-5.297-10.441-10.164-20.154-11.339-29.395
			c-1.012-7.965,0.278-22.422,2.008-34.352c1.727-11.928,3.78-21.482,3.78-21.482c1.028-4.295-1.623-8.609-5.921-9.637
			c-0.923-0.221-1.878-0.275-2.82-0.162L165.438,1236.279z"/>
		<path style="fill:#484666;" d="M329.388,1300.262c-4.415,0.18-7.85,3.9-7.671,8.314c0.022,0.539,0.099,1.076,0.229,1.602
			c0,0,1.99,8.162,3.662,18.414c1.672,10.254,2.916,22.809,2.126,29.395c-1.103,9.195-5.997,18.846-11.339,29.275
			s-11.167,21.662-12.166,34.943c-1.249,16.609,3.393,38.047,8.15,56.072c4.757,18.023,9.804,32.344,9.804,32.344
			c1.247,4.236,5.695,6.66,9.935,5.414s6.665-5.691,5.417-9.928c-0.067-0.23-0.145-0.455-0.233-0.678c0,0-4.868-13.805-9.45-31.164
			s-8.596-38.547-7.678-50.76c0.686-9.115,5.218-18.703,10.513-29.039c5.295-10.336,11.301-21.469,12.875-34.588
			c1.232-10.277-0.478-22.93-2.244-33.762c-1.766-10.832-3.78-19.596-3.78-19.596c-0.841-3.783-4.275-6.42-8.15-6.256
			L329.388,1300.262z"/>
	</g>
	<path style="fill:#BD5858;" d="M267.97,1100.404c-1.618,0-3.14,0.32-4.719,0.465c12.265,1.232,24.429,8.795,33.719,17.342
		c10.11,9.305,16.438,18.563,16.438,18.563c2.365,3.438,6.974,4.484,10.594,2.406c-1.045-0.596-1.942-1.418-2.625-2.406
		c0,0-6.327-9.258-16.438-18.563c-10.11-9.305-23.624-17.811-36.969-17.811V1100.404z M387.97,1100.404
		c-1.063,0-2.124,0.367-3.188,0.465c26.514,2.43,47.188,24.305,47.188,51.373c-0.016,14.381-8.277,36.791-18.313,52.748
		c-11.532,18.336-36.323,43.111-58.094,62.686c-15.922,14.314-25.985,22.334-31.563,26.748c1.079,0.863,3.354,2.73,3.969,3.217
		c3.824-3.033,16.472-12.803,35.563-29.967c21.771-19.574,46.562-44.35,58.094-62.686c10.035-15.959,18.297-38.367,18.313-52.748
		c0-28.701-23.153-51.842-51.969-51.842V1100.404z"/>
	<path style="fill:#CE7082;" d="M108.032,1036.438c-1.564,0-3.033,0.304-4.563,0.432c12.334,1.152,24.595,8.777,33.937,17.374
		c10.111,9.304,16.281,18.655,16.281,18.655c2.298,3.434,6.832,4.557,10.469,2.594c-1.156-0.617-2.143-1.508-2.875-2.594
		c0,0-6.17-9.352-16.281-18.656c-10.111-9.304-23.626-17.812-36.969-17.812L108.032,1036.438z M227.907,1036.438
		c-1.024,0-2.038,0.336-3.063,0.432c25.262,2.238,44.582,22.52,46.437,47.873c2.618,0.207,5.252,0.367,7.75,0.912
		C277.501,1058.346,255.711,1036.437,227.907,1036.438L227.907,1036.438z M260.345,1084.342c-37.456,0-68.031,30.527-68.031,67.904
		c0.021,13.318,4.363,29.643,11.094,44.279c-18.798,17.256-33.072,28.986-39.344,34.061c1.03,0.816,3.25,2.652,3.844,3.125
		c3.823-3.041,21.583-17.439,43.094-37.186c-6.731-14.637-11.073-30.961-11.094-44.279c0-35.969,28.423-65.316,63.937-67.498
		c-1.181-0.16-2.289-0.4-3.5-0.4V1084.342z"/>
</g>
</svg>