<?xml version="1.0" encoding="iso-8859-1"?>
<!-- Uploaded to: SVG Repo, www.svgrepo.com, Generator: SVG Repo Mixer Tools -->
<svg height="200" width="200" version="1.1" id="Layer_1" xmlns="http://www.w3.org/2000/svg" xmlns:xlink="http://www.w3.org/1999/xlink" 
	 viewBox="0 0 512.001 512.001" xml:space="preserve">
<path style="fill:#F58FBF;" d="M352.279,142.532c-3.133-0.224-6.345-0.344-9.642-0.344c-11.591,0-22.409,1.72-32.318,4.881
	c-4.657,58.407-30.566,109.698-60.361,141.204c15.305,63.95,58.949,110.643,92.681,110.643c2.907,0,5.922-0.397,9.006-1.148
	c38.855-9.467,89.276-76.759,89.276-156.697C440.919,189.539,411.059,146.732,352.279,142.532z"/>
<path style="fill:#C60024;" d="M360.791,232.904c-7.877,0-14.715,4.439-18.154,10.951c-0.007,0.013-0.014,0.026-0.022,0.038
	c-3.433-6.533-10.283-10.989-18.176-10.989c-11.334,0-20.21,9.187-20.21,20.521c0,5.364,1.556,8.393,2.816,10.945
	c5.199,10.533,35.57,35.7,35.57,35.7s0.007-0.006,0.022-0.017c0.909-0.75,30.668-25.381,35.549-35.683
	c1.211-2.555,2.859-5.816,2.859-10.945C381.045,242.091,372.125,232.904,360.791,232.904z"/>
<path style="fill:#B3D8F5;" d="M201.569,8.049c-3.42-0.216-6.915-0.33-10.493-0.33c-72.225,0-119.994,54.458-119.994,120.729
	c0,106.006,69.204,192.715,119.994,192.715c3.178,0,6.458-0.387,9.812-1.124c15.654-3.444,32.93-14.699,49.07-31.766
	c29.796-31.507,55.705-82.797,60.361-141.204c0.489-6.135,0.751-12.345,0.751-18.621C311.07,65.157,274.181,12.645,201.569,8.049z"
	/>
<path style="fill:#97C7EF;" d="M91.166,128.448c0-63.29,43.571-115.803,110.402-120.399c-3.42-0.216-6.915-0.33-10.493-0.33
	c-72.225,0-119.994,54.458-119.994,120.729c0,106.006,69.204,192.715,119.994,192.715c3.178,0,6.458-0.387,9.812-1.124
	C151.535,309.623,91.166,227.458,91.166,128.448z"/>
<path style="fill:#C60024;" d="M215.63,113.728c-10.654,0-19.902,6.004-24.554,14.811c-0.009,0.017-0.021,0.034-0.03,0.051
	c-4.643-8.836-13.909-14.863-24.584-14.863c-15.329,0-27.335,12.427-27.335,27.756c0,7.255,2.105,11.351,3.809,14.803
	c7.032,14.246,48.111,48.286,48.111,48.286s0.01-0.008,0.03-0.025c1.229-1.015,41.479-34.328,48.081-48.262
	c1.637-3.457,3.868-7.867,3.868-14.803C243.024,126.155,230.959,113.728,215.63,113.728z"/>
<path style="fill:#EF72AC;" d="M268.418,288.273c29.796-31.507,55.705-82.797,60.361-141.204c7.351-2.345,15.204-3.892,23.499-4.538
	c-3.133-0.224-6.345-0.344-9.642-0.344c-11.591,0-22.409,1.72-32.318,4.881c-4.657,58.407-30.566,109.698-60.361,141.204
	c15.305,63.95,58.949,110.643,92.681,110.643c2.907,0,5.922-0.397,9.006-1.148C319.636,390.246,282.327,346.387,268.418,288.273z"/>
<g>
	
		<ellipse transform="matrix(0.7071 -0.7071 0.7071 0.7071 -195.457 354.4529)" style="fill:#F58FBF;" cx="330.134" cy="413.164" rx="14.521" ry="10.104"/>
	
		<ellipse transform="matrix(0.7071 0.7071 -0.7071 0.7071 396.1816 -130.1171)" style="fill:#F58FBF;" cx="355.156" cy="413.175" rx="14.521" ry="10.104"/>
</g>
<g>
	
		<ellipse transform="matrix(0.7071 -0.7071 0.7071 0.7071 -184.5412 223.6181)" style="fill:#B3D8F5;" cx="177.66" cy="334.57" rx="15.571" ry="10.831"/>
	
		<ellipse transform="matrix(0.7071 0.7071 -0.7071 0.7071 296.4709 -46.6026)" style="fill:#B3D8F5;" cx="204.49" cy="334.571" rx="15.571" ry="10.831"/>
</g>
<g>
	<path style="fill:#A50020;" d="M215.63,113.728c-10.654,0-19.902,6.004-24.554,14.811v76.01
		c1.229-1.015,41.479-34.328,48.081-48.262c1.637-3.457,3.868-7.867,3.868-14.803C243.024,126.155,230.959,113.728,215.63,113.728z"
		/>
	<path style="fill:#A50020;" d="M360.791,232.904c-7.877,0-14.715,4.439-18.154,10.951v56.198
		c0.909-0.75,30.668-25.381,35.549-35.683c1.211-2.555,2.859-5.816,2.859-10.945C381.045,242.091,372.125,232.904,360.791,232.904z"
		/>
</g>
<g>
	<path style="fill:#FFFFFF;" d="M246.24,54.617c-3.525-2.361-7.32-4.481-11.278-6.297l6.44-14.03
		c4.705,2.16,9.224,4.685,13.43,7.504L246.24,54.617z"/>
	<path style="fill:#FFFFFF;" d="M277.812,96.986c-5.444-16.201-14.545-29.354-27.049-39.098l9.489-12.177
		c14.726,11.474,25.857,27.505,32.194,46.357L277.812,96.986z"/>
	<path style="fill:#FFFFFF;" d="M411.333,231.877c-2.798-14.176-7.951-26.384-16.215-38.416l12.724-8.74
		c9.495,13.825,15.416,27.858,18.635,44.167L411.333,231.877z"/>
</g>
<path d="M215.607,106.107c-9.327,0-18.065,3.624-24.561,9.873c-6.497-6.249-15.233-9.873-24.561-9.873
	c-19.315,0-35.028,15.902-35.028,35.448c0,8.894,2.596,14.146,4.491,17.981l0.111,0.224c7.537,15.27,45.731,47.18,50.062,50.769
	l4.912,4.07l4.922-4.058c4.37-3.603,42.903-35.64,50.131-50.892l0.189-0.399c1.759-3.701,4.417-9.292,4.417-17.694
	C250.694,122.009,234.954,106.107,215.607,106.107z M232.334,152.622l-0.198,0.416c-3.906,8.244-25.511,28.246-41.078,41.469
	c-15.479-13.209-37.028-33.217-41.156-41.581l-0.114-0.231c-1.488-3.011-2.894-5.854-2.894-11.142
	c0-11.221,8.606-20.011,19.591-20.011c7.46,0,14.253,4.108,17.728,10.722l6.833,13.002l6.833-13.002
	c3.475-6.613,10.269-10.722,17.728-10.722c11.019,0,19.649,8.79,19.649,20.011C235.257,146.474,233.771,149.599,232.334,152.622z"/>
<path d="M324.451,225.229c-15.393,0-27.916,12.663-27.916,28.226c0,7.047,2.124,11.343,3.53,14.188l0.082,0.166
	c5.639,11.425,32.264,33.829,37.543,38.205l4.912,4.07l4.922-4.058c5.331-4.395,32.196-26.897,37.612-38.327l0.139-0.293
	c1.379-2.899,3.462-7.282,3.462-13.95c0-15.564-12.543-28.226-27.959-28.226c-6.779,0-13.168,2.404-18.164,6.608
	C337.619,227.633,331.231,225.229,324.451,225.229z M360.78,240.666c7.022,0,12.522,5.617,12.522,12.789
	c0,3.185-0.912,5.101-1.967,7.321l-0.148,0.312c-2.534,5.347-16.873,18.866-28.56,28.884
	c-11.629-10.013-25.952-23.555-28.638-28.997l-0.085-0.172c-1.08-2.184-1.932-3.91-1.932-7.349c0-7.172,5.481-12.789,12.478-12.789
	c4.768,0,9.11,2.626,11.332,6.854l6.832,13l6.833-13C351.67,243.291,356.012,240.666,360.78,240.666z"/>
<path d="M318.626,136.932c0.102-2.849,0.162-5.684,0.162-8.485c0-35.647-11.433-67.761-32.192-90.429
	C263.82,13.146,230.788,0,191.076,0c-36.35,0-69.255,13.457-92.656,37.893C75.813,61.5,63.363,93.659,63.363,128.448
	c0,50.297,15.014,100.173,42.278,140.438c17.409,25.71,37.862,44.325,58.034,53.517c-8.424,9.157-9.585,21.527-2.475,28.638
	c3.146,3.145,7.322,4.675,11.795,4.675c1.407,0,2.842-0.157,4.285-0.457c-0.062,1.267-0.097,2.615-0.097,4.069
	c0,11.821,4.11,18.173,7.414,23.277c2.866,4.428,4.936,7.627,4.936,14.889c0,7.263-2.071,10.461-4.936,14.89
	c-3.303,5.104-7.414,11.455-7.414,23.276c0,11.822,4.11,18.175,7.414,23.278c2.866,4.429,4.936,7.629,4.936,14.892
	c0,7.264-2.071,10.463-4.937,14.893c-3.303,5.104-7.413,11.456-7.413,23.278h15.437c0-7.264,2.071-10.463,4.937-14.893
	c3.303-5.104,7.413-11.456,7.413-23.278c0-11.821-4.11-18.174-7.413-23.277c-2.866-4.429-4.937-7.629-4.937-14.893
	c0-7.262,2.071-10.46,4.936-14.889c3.303-5.105,7.414-11.456,7.414-23.277c0-11.821-4.11-18.173-7.414-23.276
	c-2.866-4.428-4.936-7.627-4.936-14.89c0-4.292,0.334-7.28,0.854-9.722c4.853,4.028,10.469,6.11,15.683,6.11
	c4.474,0,8.651-1.53,11.796-4.676c7.188-7.188,5.924-19.752-2.754-28.939c9.182-4.378,18.547-10.818,27.78-19.146
	c13.979,45.408,42.334,83.039,71.764,97.413c-0.071,0.07-0.147,0.131-0.218,0.202c-3.847,3.847-6.442,8.623-7.309,13.448
	c-1.034,5.765,0.491,11.188,4.183,14.881c3.035,3.035,7.062,4.514,11.369,4.514c1.671,0,3.385-0.229,5.098-0.67
	c-0.041,1.189-0.065,2.469-0.065,3.866c0,11.037,2.53,16.829,4.762,21.937c1.94,4.44,3.471,7.947,3.471,15.759
	c0,7.811-1.531,11.318-3.471,15.758c-2.231,5.11-4.762,10.902-4.762,21.937h15.437c0-7.812,1.531-11.319,3.471-15.759
	c2.232-5.11,4.762-10.901,4.762-21.936s-2.53-16.829-4.762-21.937c-1.94-4.44-3.471-7.947-3.471-15.759
	c0-3.233,0.124-5.604,0.327-7.484c4.124,2.832,8.668,4.288,12.94,4.288c4.306,0,8.333-1.479,11.368-4.514
	c3.694-3.694,5.219-9.116,4.185-14.881c-0.866-4.825-3.461-9.601-7.309-13.448c-0.164-0.164-0.338-0.307-0.504-0.466
	c15.745-7.99,31.776-23.012,45.727-43.393c22.998-33.6,35.664-74.668,35.664-115.639c0-29.547-9.494-56.185-26.733-75.009
	c-18.928-20.668-46.338-31.593-79.268-31.593C334.397,134.469,326.364,135.309,318.626,136.932z M182.36,333.404
	c-0.542,1.059-1.34,2.215-2.495,3.369c-3.558,3.558-7.155,3.767-7.745,3.357c-0.426-0.603-0.214-4.198,3.345-7.757
	c2.766-2.766,5.554-3.509,6.936-3.509c0.331,0,0.558,0.049,0.708,0.116C182.935,330.685,182.679,332.113,182.36,333.404z
	 M210.043,340.118c-0.604,0.422-4.2,0.214-7.758-3.345c-2.506-2.506-3.349-5.024-3.486-6.505c0.004-0.215-0.013-0.425-0.016-0.638
	c0.017-0.286,0.071-0.494,0.146-0.601c0.136-0.096,0.424-0.158,0.831-0.158c1.393,0,4.172,0.748,6.927,3.503
	C210.247,335.933,210.457,339.527,210.043,340.118z M244.348,282.97c-18.315,19.366-37.733,30.474-53.274,30.474
	c-22.589,0-50.427-20.39-72.653-53.214c-25.552-37.737-39.623-84.538-39.623-131.783C78.8,62.965,126.018,15.437,191.076,15.437
	c68.205,0,112.276,44.359,112.276,113.01c0,5.904-0.245,11.964-0.727,18.009c-3.828,48.011-23.214,95.865-52.326,129.896
	C248.358,278.621,246.374,280.828,244.348,282.97z M334.72,410.153c-0.357,1.285-1.212,3.01-2.907,4.705
	c-2.724,2.725-5.531,3.281-6.457,3.084c-0.199-0.926,0.359-3.733,3.084-6.456c2.67-2.67,5.403-3.251,6.388-3.091
	C334.798,409.023,334.762,409.606,334.72,410.153z M359.918,417.941c-0.922,0.198-3.731-0.36-6.457-3.084
	c-2.236-2.235-3.001-4.509-3.098-5.77c0.002-0.13-0.01-0.256-0.011-0.386c0.005-0.107,0.008-0.219,0.025-0.301
	c0.931-0.193,3.734,0.361,6.457,3.084C359.559,414.21,360.117,417.015,359.918,417.941z M433.201,241.071
	c0,81.421-55.627,150.127-90.564,150.127c-14.343,0-31.626-10.452-47.416-28.676c-16.625-19.187-29.594-44.653-36.763-72.073
	c0.061-0.068,0.12-0.138,0.182-0.206c0.372-0.412,0.735-0.834,1.103-1.249c0.657-0.742,1.314-1.483,1.963-2.237
	c0.41-0.477,0.811-0.962,1.216-1.443c0.597-0.708,1.194-1.416,1.783-2.134c0.425-0.519,0.843-1.045,1.263-1.568
	c0.559-0.697,1.118-1.392,1.669-2.098c0.429-0.55,0.853-1.105,1.278-1.66c0.532-0.695,1.063-1.39,1.588-2.094
	c0.428-0.574,0.852-1.154,1.276-1.733c0.509-0.698,1.018-1.398,1.521-2.104c0.424-0.595,0.844-1.193,1.262-1.794
	c0.491-0.704,0.98-1.412,1.463-2.123c0.418-0.614,0.833-1.231,1.245-1.85c0.474-0.712,0.945-1.428,1.412-2.149
	c0.408-0.628,0.814-1.258,1.216-1.891c0.46-0.725,0.916-1.454,1.369-2.185c0.397-0.641,0.794-1.282,1.187-1.929
	c0.446-0.736,0.886-1.477,1.324-2.219c0.386-0.652,0.773-1.304,1.153-1.962c0.434-0.75,0.861-1.508,1.287-2.265
	c0.372-0.659,0.745-1.316,1.111-1.98c0.425-0.771,0.842-1.549,1.26-2.327c0.355-0.66,0.713-1.317,1.062-1.982
	c0.421-0.802,0.832-1.611,1.245-2.418c0.332-0.649,0.669-1.296,0.996-1.949c0.437-0.874,0.862-1.757,1.29-2.637
	c0.289-0.596,0.586-1.188,0.871-1.787c0.679-1.427,1.345-2.863,2-4.307c0.231-0.509,0.453-1.025,0.68-1.537
	c0.458-1.03,0.918-2.06,1.364-3.099c0.281-0.654,0.55-1.313,0.825-1.971c0.364-0.87,0.732-1.737,1.087-2.612
	c0.285-0.702,0.56-1.41,0.839-2.115c0.331-0.836,0.664-1.67,0.987-2.511c0.28-0.729,0.55-1.461,0.823-2.193
	c0.308-0.825,0.617-1.65,0.918-2.479c0.27-0.744,0.53-1.492,0.793-2.24c0.289-0.824,0.579-1.648,0.86-2.475
	c0.256-0.754,0.506-1.512,0.756-2.268c0.273-0.827,0.544-1.656,0.81-2.486c0.243-0.761,0.48-1.522,0.714-2.286
	c0.257-0.835,0.512-1.669,0.762-2.507c0.227-0.765,0.451-1.53,0.672-2.298c0.242-0.842,0.48-1.684,0.713-2.529
	c0.212-0.766,0.421-1.533,0.626-2.301c0.227-0.853,0.45-1.708,0.669-2.565c0.196-0.763,0.389-1.526,0.577-2.291
	c0.213-0.867,0.419-1.735,0.624-2.604c0.178-0.758,0.357-1.517,0.529-2.277c0.2-0.886,0.391-1.774,0.581-2.662
	c0.16-0.744,0.321-1.487,0.473-2.232c0.188-0.917,0.365-1.836,0.543-2.755c0.14-0.721,0.283-1.442,0.416-2.164
	c0.177-0.956,0.341-1.914,0.505-2.872c0.118-0.689,0.243-1.376,0.356-2.064c0.171-1.044,0.327-2.089,0.485-3.135
	c0.091-0.603,0.189-1.205,0.276-1.808c0.198-1.375,0.378-2.751,0.551-4.128c0.035-0.275,0.075-0.55,0.109-0.825
	c0.199-1.619,0.382-3.239,0.548-4.86c7.978-2.068,16.402-3.112,25.11-3.112C397.653,149.906,433.201,185.691,433.201,241.071z"/>
</svg>