<?xml version="1.0" encoding="iso-8859-1"?>
<!-- Uploaded to: SVG Repo, www.svgrepo.com, Generator: SVG Repo Mixer Tools -->
<svg height="400" width="400" version="1.1" id="Layer_1" xmlns="http://www.w3.org/2000/svg" xmlns:xlink="http://www.w3.org/1999/xlink" 
	 viewBox="0 0 512.001 512.001" xml:space="preserve">
<path style="fill:#E2F7F6;" d="M324.976,356.404c-4.516-2.104-8.805-4.494-12.868-7.129c-1.012,1.114-1.877,2.397-2.547,3.832
	c-3.586,7.683-0.258,16.816,7.432,20.398c7.689,3.583,16.833,0.258,20.418-7.424c0.671-1.436,1.098-2.922,1.303-4.414
	C334.083,360.253,329.491,358.508,324.976,356.404z"/>
<path style="fill:#C9F0F4;" d="M463.974,305.869c-24.412,52.296-86.644,74.921-138.998,50.535
	c-52.354-24.387-75.005-86.55-50.593-138.847c24.413-52.297,86.646-74.922,139-50.535
	C465.737,191.406,488.387,253.572,463.974,305.869z"/>
<path style="fill:#FFBAC5;" d="M347.491,308.175c-1.268-0.59-2.248-1.659-2.727-2.973l-17.588-48.338
	c-2.489-6.829-2.166-14.218,0.908-20.805c3.075-6.587,8.535-11.585,15.373-14.071c6.835-2.485,14.232-2.163,20.828,0.908
	c6.594,3.072,11.595,8.526,14.085,15.354l0.772,2.123l2.124-0.773c6.835-2.484,14.233-2.164,20.828,0.907
	c6.593,3.073,11.595,8.527,14.084,15.355c2.488,6.827,2.166,14.219-0.909,20.807c-3.074,6.586-8.535,11.582-15.369,14.067
	l-48.375,17.612C350.209,308.828,348.758,308.764,347.491,308.175z"/>
<path style="fill:#E2F7F6;" d="M202.44,353.107c-0.671-1.435-1.535-2.718-2.547-3.832c-4.063,2.635-8.352,5.026-12.868,7.129
	c-4.516,2.103-9.106,3.849-13.738,5.263c0.204,1.492,0.632,2.978,1.303,4.414c3.585,7.682,12.728,11.006,20.418,7.424
	C202.698,369.921,206.026,360.789,202.44,353.107z"/>
<path style="fill:#C9F0F4;" d="M48.027,305.869c24.412,52.296,86.644,74.921,138.998,50.535
	c52.354-24.387,75.005-86.55,50.592-138.847c-24.412-52.297-86.645-74.922-138.999-50.535
	C46.265,191.406,23.614,253.572,48.027,305.869z"/>
<path style="opacity:0.1;enable-background:new    ;" d="M346.46,345.483c-52.354-24.387-75.005-86.55-50.593-138.847
	c8.43-18.058,21.371-32.577,36.856-42.845c-24.862,9.235-46.243,27.856-58.339,53.766c-24.412,52.297-1.762,114.46,50.593,138.847
	c34.276,15.965,72.784,11.777,102.143-7.69C401.802,358.116,372.875,357.786,346.46,345.483z"/>
<path style="opacity:0.1;enable-background:new    ;" d="M69.51,294.946c-22.162-47.477-5.536-103.083,36.886-131.175
	c-2.613,0.973-5.208,2.053-7.778,3.25c-52.353,24.385-75.004,86.55-50.591,138.847c24.412,52.296,86.644,74.921,138.998,50.535
	c4.825-2.248,9.397-4.818,13.704-7.672C150.133,367.57,92.724,344.674,69.51,294.946z"/>
<g>
	<ellipse style="fill:#FFBAC5;" cx="256.001" cy="138.94" rx="131.25" ry="131.103"/>
	<path style="fill:#FFBAC5;" d="M164.51,308.175c1.269-0.59,2.248-1.659,2.727-2.973l17.588-48.338
		c2.489-6.829,2.166-14.218-0.908-20.805c-3.075-6.587-8.535-11.585-15.373-14.071c-6.835-2.485-14.232-2.163-20.828,0.908
		c-6.594,3.072-11.595,8.526-14.084,15.354l-0.772,2.123l-2.124-0.773c-6.836-2.484-14.233-2.164-20.828,0.907
		c-6.594,3.073-11.595,8.527-14.085,15.355c-2.487,6.827-2.165,14.219,0.91,20.807c3.074,6.586,8.535,11.582,15.369,14.067
		l48.375,17.612C161.793,308.828,163.244,308.764,164.51,308.175z"/>
</g>
<path style="opacity:0.1;enable-background:new    ;" d="M365.786,302.207l-17.588-48.338c-2.489-6.829-2.166-14.218,0.908-20.805
	c2.325-4.98,6.015-9.046,10.631-11.81c-5.342-1.423-10.981-1.193-16.282,0.735c-6.838,2.486-12.297,7.484-15.373,14.071
	c-3.074,6.587-3.397,13.976-0.908,20.805l17.588,48.338c0.48,1.313,1.459,2.381,2.727,2.973c1.267,0.59,2.719,0.653,4.033,0.176
	l14.652-5.334C366.027,302.757,365.889,302.491,365.786,302.207z"/>
<path style="opacity:0.1;enable-background:new    ;" d="M173.789,286.371c-1.267,0.589-2.719,0.653-4.033,0.176l-48.375-17.612
	c-6.835-2.486-12.295-7.481-15.369-14.067c-1.517-3.249-2.36-6.693-2.531-10.169c-3.42,2.983-6.06,6.787-7.658,11.166
	c-2.487,6.827-2.165,14.219,0.91,20.807c3.074,6.586,8.535,11.582,15.369,14.067l48.375,17.612c1.316,0.478,2.766,0.415,4.033-0.176
	c1.269-0.59,2.248-1.659,2.727-2.973l6.934-19.057C174.043,286.218,173.925,286.308,173.789,286.371z"/>
<g>
	<path style="fill:#FFBAC5;" d="M256.001,270.041c-6.252,0-12.399-0.447-18.417-1.29c-0.56,1.803-0.862,3.72-0.862,5.707
		c0,10.636,8.633,19.26,19.279,19.26c10.646,0,19.279-8.624,19.279-19.26c0-1.987-0.302-3.904-0.862-5.707
		C268.399,269.594,262.252,270.041,256.001,270.041z"/>
	<ellipse style="fill:#FFBAC5;" cx="256.001" cy="138.94" rx="131.25" ry="131.103"/>
</g>
<path style="fill:#FF8163;" d="M256.001,203.266c-1.756,0-3.438-0.698-4.68-1.937l-45.662-45.654
	c-6.456-6.447-10.011-15.021-10.011-24.141s3.555-17.696,10.011-24.141c6.455-6.448,15.037-10.001,24.17-10.001
	c9.128,0,17.711,3.553,24.169,10.001l2.005,2.004l2.005-2.004c16.112-13.335,32.225-13.335,48.338,0
	c6.453,6.446,10.011,15.022,10.011,24.141c0,9.12-3.558,17.694-10.011,24.141l-45.662,45.654
	C259.438,202.568,257.757,203.266,256.001,203.266z"/>
<path style="opacity:0.1;enable-background:new    ;" d="M157.558,138.94c0-66.857,50.101-122.022,114.845-130.086
	c-5.374-0.67-10.847-1.018-16.402-1.018c-72.485,0-131.245,58.697-131.245,131.103c0,72.405,58.761,131.101,131.245,131.101
	c5.555,0,11.028-0.348,16.402-1.018C207.658,260.96,157.558,205.796,157.558,138.94z"/>
<g style="opacity:0.1;">
	<path d="M227.301,144.516c-6.456-6.447-10.011-15.021-10.011-24.141c0-8.486,3.081-16.499,8.711-22.765
		c-7.684,0.85-14.799,4.244-20.343,9.782c-6.456,6.446-10.011,15.022-10.011,24.141c0,9.12,3.555,17.694,10.011,24.141
		l45.662,45.654c1.242,1.24,2.925,1.937,4.68,1.937s3.438-0.698,4.681-1.937l11.722-11.72L227.301,144.516z"/>
</g>
<path d="M256.001,98.689c-7.415-5.92-16.548-9.134-26.174-9.134c-11.221,0-21.771,4.366-29.706,12.292
	c-7.939,7.927-12.311,18.47-12.311,29.688c0,11.216,4.372,21.759,12.307,29.682l45.668,45.66c2.732,2.725,6.36,4.227,10.215,4.227
	s7.484-1.5,10.221-4.233l45.66-45.652c7.938-7.93,12.309-18.473,12.309-29.684c0-11.214-4.372-21.757-12.311-29.687
	c-7.938-7.928-18.488-12.293-29.706-12.293C272.547,89.554,263.414,92.768,256.001,98.689z M308.518,131.534
	c0,7.024-2.74,13.628-7.716,18.599l-44.802,44.794l-44.805-44.797c-4.973-4.966-7.711-11.57-7.711-18.596
	c0-7.027,2.739-13.631,7.712-18.597c4.977-4.972,11.593-7.709,18.632-7.709c7.035,0,13.652,2.738,18.628,7.707l2.005,2.004
	c3.059,3.059,8.021,3.059,11.08,0l2.003-2.002c4.977-4.972,11.593-7.709,18.631-7.709c7.036,0,13.653,2.738,18.632,7.709
	C305.779,117.904,308.518,124.509,308.518,131.534z"/>
<path d="M474.829,223.295c-10.272-28.191-30.919-50.699-58.137-63.377c-7.272-3.389-14.728-5.925-22.251-7.658
	c0.42-4.385,0.643-8.826,0.643-13.319c0-22.764-5.635-45.349-16.297-65.311c-2.04-3.818-6.789-5.26-10.605-3.22
	c-3.818,2.039-5.26,6.787-3.221,10.605c9.452,17.698,14.449,37.729,14.449,57.927c0,67.969-55.361,123.265-123.409,123.265
	S132.592,206.909,132.592,138.94c0-67.97,55.361-123.267,123.409-123.267c35.898,0,69.957,15.579,93.441,42.744
	c2.831,3.275,7.78,3.635,11.054,0.804c3.274-2.831,3.634-7.779,0.804-11.054C334.835,17.556,296.455,0,256.001,0
	c-76.69,0-139.082,62.328-139.082,138.94c0,4.487,0.22,8.922,0.638,13.302c-7.599,1.756-15.032,4.315-22.247,7.677
	c-27.219,12.677-47.866,35.185-58.138,63.376c-10.272,28.193-8.94,58.697,3.754,85.889c18.395,39.406,58.418,64.869,101.963,64.87
	c0.001,0,0.002,0,0.003,0c8.657,0,17.176-0.992,25.495-2.941c4.101,7.145,11.803,11.67,20.136,11.67l0,0
	c0.712,0,1.417-0.04,2.118-0.103l11.673,25.005c1.33,2.849,4.157,4.523,7.106,4.523c1.111,0,2.238-0.237,3.309-0.738
	c3.923-1.831,5.617-6.494,3.787-10.417l-11.675-25.011c2.399-2.374,4.284-5.252,5.473-8.517c1.896-5.204,1.864-10.785-0.034-15.923
	c17.135-12.779,30.252-30.199,37.883-50.659v167.905l-21.401-45.846c-1.831-3.922-6.495-5.617-10.416-3.786
	c-3.922,1.831-5.617,6.494-3.787,10.417c0,0,36.369,77.892,36.381,77.918c1.265,2.63,3.946,4.449,7.058,4.449
	c3.105,0,5.78-1.81,7.049-4.429c0.015-0.027,45.577-97.621,58.308-124.89c0.701,0.064,1.406,0.103,2.118,0.103
	c8.336,0,16.04-4.529,20.14-11.678c8.486,1.994,17.097,2.988,25.672,2.988c27.533,0,54.671-10.146,75.907-29.59
	c3.192-2.923,3.411-7.88,0.487-11.073c-2.924-3.192-7.882-3.412-11.072-0.487c-28.969,26.528-70.704,32.948-106.325,16.356
	c-23.423-10.91-41.191-30.278-50.03-54.535c-0.403-1.108-0.781-2.218-1.14-3.332c3.601-4.464,5.812-10.084,5.983-16.21
	c13.302-2.635,25.923-7.171,37.576-13.31l16.729,45.979c1.201,3.287,3.608,5.91,6.782,7.388c1.722,0.801,3.635,1.225,5.536,1.225
	c1.532,0,3.039-0.265,4.486-0.79l48.371-17.612c8.803-3.202,15.832-9.636,19.791-18.116c3.962-8.486,4.378-18.006,1.17-26.807
	c-3.207-8.795-9.648-15.818-18.138-19.775c-4.695-2.187-9.674-3.295-14.802-3.295c-2.356,0-4.699,0.238-7.004,0.711
	c-3.006-5.553-7.445-10.139-12.909-13.373c10.15-14.751,17.525-31.547,21.368-49.635c6.091,1.482,12.125,3.567,18.02,6.313
	c23.422,10.909,41.189,30.278,50.028,54.534c8.838,24.257,7.691,50.499-3.23,73.893c-1.596,3.418-3.398,6.763-5.356,9.938
	c-2.272,3.684-1.126,8.512,2.558,10.783c3.684,2.272,8.512,1.126,10.783-2.557c2.274-3.688,4.366-7.569,6.217-11.534
	C483.769,281.992,485.102,251.489,474.829,223.295z M151.026,230.001c0.004-0.002,0.009-0.004,0.015-0.006
	c7.809,8.969,16.75,16.929,26.596,23.662c-0.059,0.177-0.11,0.353-0.173,0.529l-16.71,45.925l-45.97-16.737
	c-4.87-1.771-8.758-5.33-10.947-10.018c-2.189-4.687-2.419-9.948-0.649-14.806c1.774-4.864,5.338-8.749,10.032-10.937
	c2.607-1.214,5.359-1.83,8.184-1.83c2.257,0,4.497,0.398,6.654,1.183c6.175,2.41,10.814,0.249,12.94-6.03
	C142.769,236.073,146.332,232.189,151.026,230.001C151.03,229.999,146.332,232.189,151.026,230.001z M195.59,362.16
	c-0.687,1.887-2.069,3.393-3.891,4.241c-1.009,0.47-2.077,0.709-3.174,0.709c-1.412,0-2.764-0.406-3.927-1.115
	c1.927-0.773,3.839-1.602,5.736-2.486c1.91-0.89,3.785-1.833,5.629-2.818C195.889,361.186,195.765,361.678,195.59,362.16z
	 M233.745,294.765c-8.839,24.257-26.606,43.626-50.029,54.535c-12.937,6.027-26.673,9.081-40.826,9.08
	c-37.483,0-71.931-21.915-87.762-55.828c-10.921-23.394-12.068-49.636-3.23-73.893c8.839-24.257,26.605-43.626,50.029-54.534
	c5.852-2.726,11.871-4.828,18.016-6.33c3.841,18.093,11.217,34.895,21.372,49.651c-5.463,3.232-9.902,7.818-12.91,13.373
	c-2.306-0.472-4.648-0.711-7.005-0.711c-5.127,0-10.106,1.109-14.803,3.296c-8.488,3.956-14.928,10.979-18.138,19.777
	c-3.205,8.8-2.789,18.318,1.172,26.804c3.959,8.48,10.988,14.915,19.789,18.116l48.381,17.614c1.44,0.522,2.947,0.788,4.479,0.788
	c1.9,0,3.814-0.423,5.538-1.226c3.171-1.478,5.579-4.101,6.782-7.397l16.728-45.973c11.652,6.139,24.272,10.68,37.572,13.314
	c0.171,6.12,2.393,11.73,5.987,16.192C234.53,292.535,234.151,293.652,233.745,294.765z M256.001,285.88
	c-5.274,0-9.713-3.586-11.033-8.439c3.64,0.286,7.32,0.437,11.033,0.437c3.714,0,7.393-0.15,11.033-0.437
	C265.714,282.294,261.274,285.88,256.001,285.88z M321.667,363.508c1.899,0.885,3.813,1.713,5.74,2.484
	c-1.164,0.712-2.517,1.117-3.93,1.117c-1.096,0-2.164-0.239-3.174-0.709c-1.822-0.848-3.204-2.354-3.891-4.241
	c-0.176-0.482-0.299-0.975-0.373-1.47C317.883,361.675,319.757,362.618,321.667,363.508z M301.72,351.6
	c-1.899,5.138-1.932,10.721-0.036,15.925c1.19,3.265,3.074,6.143,5.473,8.518l-43.321,92.804V300.94
	C271.468,321.401,284.587,338.819,301.72,351.6z M371.003,240.929c2.124,6.28,6.762,8.445,12.938,6.036
	c4.867-1.769,10.155-1.538,14.841,0.645c4.696,2.189,8.259,6.074,10.032,10.935c1.771,4.862,1.542,10.121-0.647,14.809
	s-6.076,8.247-10.949,10.018l-45.968,16.737l-16.711-45.93c-0.063-0.172-0.114-0.347-0.171-0.519
	c9.846-6.733,18.788-14.694,26.598-23.665c0.003,0.002,0.006,0.003,0.009,0.004C365.669,232.189,369.232,236.073,371.003,240.929z"
	/>
</svg>