<?xml version="1.0" encoding="iso-8859-1"?>
<!-- Uploaded to: SVG Repo, www.svgrepo.com, Generator: SVG Repo Mixer Tools -->
<svg height="400" width="400" version="1.1" id="Layer_1" xmlns="http://www.w3.org/2000/svg" xmlns:xlink="http://www.w3.org/1999/xlink" 
	 viewBox="0 0 481.306 481.306" xml:space="preserve">
<path style="fill:#DF5349;" d="M318.666,32.253c33.68,33.68,33.68,88.32,0,122l-142.4,142.4l-0.32-0.32l-0.32,0.32l-142.4-142.4
	c-33.68-33.68-33.68-88.32,0-122c33.68-33.76,88.32-33.76,122.08,0l20.64,20.64l20.64-20.64
	C230.346-1.507,284.986-1.507,318.666,32.253z"/>
<path id="SVGCleanerId_0" style="fill:#F9B170;" d="M208.826,298.253c7.84,7.6,7.84,20,0,27.68l-32.8,32.32l-0.08-0.08l-0.08,0.08
	l-32.8-32.32c-7.84-7.68-7.84-20.08,0-27.68c7.76-7.68,20.32-7.68,28.08,0l4.8,4.64l4.8-4.64
	C188.506,290.573,201.066,290.573,208.826,298.253z"/>
<path d="M176.026,366.253c-0.04,0-0.088,0-0.128,0c-0.632-0.008-1.256-0.096-1.864-0.248c-1.416-0.328-2.736-1.016-3.784-2.048
	l-32.808-32.32c-5.344-5.24-8.28-12.216-8.256-19.648c0.016-7.368,2.96-14.28,8.28-19.456c10.576-10.424,27.568-10.688,38.48-0.76
	c10.832-9.936,27.92-9.68,38.504,0.792c5.28,5.12,8.232,12.04,8.248,19.424c0.024,7.424-2.912,14.408-8.272,19.664l-32.792,32.304
	C180.138,365.429,178.122,366.253,176.026,366.253z M157.082,300.509c-3.04,0-6.08,1.152-8.392,3.432
	c-0.016,0.016-0.04,0.04-0.056,0.056c-2.216,2.152-3.44,5-3.448,8.032c-0.008,3.072,1.224,5.984,3.48,8.184l27.28,26.88
	l27.264-26.864c2.264-2.216,3.504-5.128,3.496-8.2c-0.008-3.032-1.224-5.888-3.448-8.032c-4.696-4.648-12.256-4.648-16.888-0.056
	l-4.856,4.704c-3.112,2.992-8.016,2.992-11.128,0l-4.8-4.64C163.226,301.669,160.146,300.509,157.082,300.509z"/>
<g>
	<path id="SVGCleanerId_0_1_" style="fill:#F9B170;" d="M208.826,298.253c7.84,7.6,7.84,20,0,27.68l-32.8,32.32l-0.08-0.08
		l-0.08,0.08l-32.8-32.32c-7.84-7.68-7.84-20.08,0-27.68c7.76-7.68,20.32-7.68,28.08,0l4.8,4.64l4.8-4.64
		C188.506,290.573,201.066,290.573,208.826,298.253z"/>
</g>
<path d="M324.33,27.469C306.538,9.637,282.882,0.653,257.714,0.653c-0.024,0-0.04,0-0.056,0c-25.192,0-48.888,8.968-66.728,26.808
	l-14.984,14.544l-14.984-14.336c-17.84-17.84-41.528-27.016-66.728-27.016c-0.016,0-0.032,0-0.056,0
	c-25.168,0-48.832,8.984-66.608,26.808c-36.76,36.752-36.76,96.128,0,132.88l125.048,124.84c-5.544,0.888-10.88,3.248-15.152,7.464
	c-5.32,5.168-8.264,12.032-8.28,19.4c-0.024,7.424,2.912,14.376,8.256,19.616l30.504,30.024v110.968c0,4.416,3.576,8,8,8
	s8-3.584,8-8V361.685l30.488-30.032c5.36-5.256,8.296-12.232,8.272-19.664c-0.016-7.384-2.968-14.304-8.248-19.424
	c-4.28-4.232-9.624-6.712-15.184-7.608l125.048-124.624C361.074,123.589,361.082,64.221,324.33,27.469z M206.706,312.029
	c0.008,3.072-1.224,5.984-3.496,8.2l-25.2,24.832c-0.672-0.176-1.336-0.408-2.064-0.408s-1.392,0.232-2.064,0.416l-25.216-24.848
	c-2.248-2.2-3.488-5.112-3.48-8.184c0.008-3.032,1.224-5.888,3.448-8.032c0.016-0.016,0.04-0.032,0.056-0.056
	c2.312-2.288,5.352-3.432,8.392-3.432c3.072,0,6.152,1.168,8.504,3.504l4.8,4.64c3.112,2.992,8.016,2.992,11.128,0l4.856-4.704
	c4.632-4.592,12.192-4.592,16.888,0.056C205.474,306.149,206.698,308.997,206.706,312.029z M175.946,285.661L38.882,148.597
	C8.37,118.085,8.37,69.285,38.89,38.765c14.768-14.8,34.408-22.112,55.296-22.112c0.024,0,0.032,0,0.048,0
	c20.92,0,40.592,7.304,55.416,22.12l15.296,14.864l-26.96,29.904c-2.944,3.296-2.664,8.248,0.624,11.192
	c1.52,1.368,3.432,1.984,5.336,1.984c2.192,0,4.384-0.928,5.96-2.688l31.968-35.728l20.368-19.512
	c14.824-14.832,34.496-22.136,55.416-22.136c0.016,0,0.032,0,0.048,0c20.888,0,38.24,7.312,54.24,22.112v-0.424
	c32,30.512,31.048,79.96,0.528,110.472L175.946,285.661z"/>
<path d="M124.346,114.013c-0.4-0.32-0.88-0.56-1.36-0.72c-0.488-0.24-0.96-0.4-1.52-0.48c-0.96-0.24-2.08-0.24-3.04,0
	c-0.552,0.08-1.04,0.24-1.512,0.48c-0.488,0.16-0.96,0.4-1.448,0.72c-0.4,0.32-0.8,0.64-1.192,0.96
	c-1.456,1.52-2.328,3.6-2.328,5.68s0.872,4.16,2.32,5.68c0.4,0.32,0.8,0.64,1.192,0.96c0.488,0.32,0.96,0.56,1.448,0.72
	c0.48,0.24,0.96,0.4,1.512,0.48c0.488,0.08,1.04,0.16,1.528,0.16c0.48,0,1.04-0.08,1.512-0.16c0.56-0.08,1.04-0.24,1.52-0.48
	c0.48-0.16,0.96-0.4,1.36-0.72c0.48-0.32,0.88-0.64,1.28-0.96c1.448-1.52,2.328-3.6,2.328-5.68s-0.88-4.16-2.32-5.68
	C125.226,114.653,124.818,114.333,124.346,114.013z"/>
<path style="fill:#F36162;" d="M451.466,79.613c29.12,28.64,29.12,75.2,0,103.84l-123.2,121.2l-0.32-0.32l-0.32,0.32l-123.2-121.2
	c-29.12-28.64-29.12-75.2,0-103.84c29.2-28.72,76.48-28.72,105.6,0l17.92,17.6l17.92-17.6
	C374.986,50.893,422.266,50.893,451.466,79.613z"/>
<path style="fill:#F9B170;" d="M360.826,306.253c7.84,7.6,7.84,20,0,27.68l-32.8,32.32l-0.08-0.08l-0.08,0.08l-32.8-32.32
	c-7.84-7.68-7.84-20.08,0-27.68c7.76-7.68,20.32-7.68,28.08,0l4.8,4.64l4.8-4.64C340.506,298.573,353.066,298.573,360.826,306.253z"
	/>
<path d="M481.306,131.533c0-21.792-8.6-42.256-24.224-57.624c-32.256-31.72-84.664-31.72-116.816,0l-12.32,12.088l-12.304-12.08
	c-32.176-31.736-84.576-31.728-116.832-0.008c-15.624,15.368-24.224,35.832-24.224,57.624s8.6,42.256,24.224,57.624l105.552,103.832
	c-5.456,0.928-10.688,3.392-14.896,7.544c-5.32,5.168-8.264,12.08-8.28,19.456c-0.024,7.424,2.912,14.408,8.256,19.648
	l30.504,30.048v102.968c0,4.416,3.576,8,8,8s8-3.584,8-8V369.685l30.488-30.032c5.36-5.256,8.296-12.232,8.272-19.664
	c-0.016-7.384-2.968-14.304-8.248-19.424c-4.208-4.168-9.456-6.64-14.928-7.576l105.552-103.832
	C472.706,173.789,481.306,153.325,481.306,131.533z M358.706,320.029c0.008,3.072-1.224,5.984-3.496,8.2l-25.2,24.832
	c-0.672-0.176-1.336-0.408-2.064-0.408s-1.392,0.232-2.064,0.416l-25.216-24.848c-2.248-2.2-3.488-5.112-3.48-8.184
	c0.008-3.032,1.224-5.888,3.448-8.032c0.016-0.016,0.04-0.032,0.056-0.056c2.312-2.288,5.352-3.432,8.392-3.432
	c3.072,0,6.152,1.168,8.504,3.504l4.8,4.64c3.112,2.992,8.016,2.992,11.128,0l4.856-4.704c4.632-4.592,12.192-4.584,16.888,0.056
	C357.474,314.149,358.698,316.997,358.706,320.029z M327.946,293.749l-117.912-116c-12.536-12.336-19.448-28.752-19.448-46.216
	c0-17.472,6.904-33.88,19.448-46.216c26.064-25.632,68.392-25.64,94.392,0l17.92,17.6c0.016,0.016,0.04,0.024,0.064,0.04
	l31.936,31.4c1.544,1.528,3.576,2.296,5.6,2.296c2.072,0,4.144-0.8,5.704-2.392c3.104-3.152,3.056-8.216-0.096-11.312L339.37,97.205
	l12.112-11.896c25.984-25.632,68.312-25.624,94.376,0.008c12.536,12.336,19.448,28.752,19.448,46.216
	c0,17.464-6.904,33.88-19.448,46.216L327.946,293.749z"/>
<path d="M378.266,146.973c-1.448,1.52-2.32,3.6-2.32,5.68s0.872,4.16,2.32,5.68c1.512,1.44,3.6,2.32,5.68,2.32s4.16-0.88,5.68-2.32
	c1.44-1.52,2.32-3.6,2.32-5.68s-0.88-4.16-2.32-5.68C386.586,144.013,381.226,144.013,378.266,146.973z"/>
</svg>